<svg xmlns="http://www.w3.org/2000/svg" fill="none" viewBox="0 0 157 47"><path fill="#000" fill-rule="evenodd" d="M0 7.3C0 3.3 3.3 0 7.3 0h141.4c4 0 7.4 3.3 7.4 7.3v32.4c0 4-3.3 7.3-7.4 7.3H7.3c-4 0-7.3-3.3-7.3-7.3V7.3z" clip-rule="evenodd"/><path fill="#fff" d="M50.8 15V7.9h2c.7 0 1.2.1 1.7.4.4.3.8.7 1 1.2.3.5.5 1 .5 1.7v.5c0 .6-.2 1.2-.4 1.7-.3.5-.7 1-1.1 1.2-.5.3-1 .4-1.7.4h-2zm1-6.3v5.5h1c.7 0 1.2-.2 1.6-.6.4-.5.6-1.1.6-2v-.4c0-.8-.2-1.4-.5-1.9a2 2 0 0 0-1.6-.6h-1.1zm5.2 3.6c0-.5.1-1 .3-1.4.2-.4.5-.7.9-1 .3-.2.7-.3 1.2-.3.7 0 1.3.3 1.7.8.5.5.7 1.1.7 2 0 .5 0 1-.3 1.4a2.2 2.2 0 0 1-2 1.3c-.8 0-1.4-.3-1.8-.7-.5-.5-.7-1.2-.7-2zm1 .1c0 .6 0 1 .3 1.4.3.4.7.6 1.1.6.5 0 .8-.2 1.1-.6.3-.3.4-.8.4-1.5 0-.6-.1-1-.4-1.4-.3-.4-.6-.5-1.1-.5-.4 0-.8.1-1 .5-.3.3-.5.9-.5 1.5zm9.6 1.4l1-4h1L68 15h-.7L66 11l-1.3 4H64l-1.5-5.3h.9l1 4 1.2-4h.8l1.2 4zm3.7-4v.6a2 2 0 0 1 1.6-.8c1.2 0 1.7.6 1.7 2V15h-.9v-3.5c0-.4 0-.7-.2-.8-.2-.2-.5-.3-.8-.3-.3 0-.6 0-.8.2l-.5.6V15h-1V9.7h1zM77 15h-1V7.5h1V15zm1.2-2.7c0-.5 0-1 .3-1.4l.8-1c.4-.2.8-.3 1.3-.3.7 0 1.3.3 1.7.8.5.5.7 1.1.7 2 0 .5-.1 1-.3 1.4a2.2 2.2 0 0 1-2.1 1.3c-.7 0-1.3-.3-1.8-.7-.4-.5-.6-1.2-.6-2zm.9.1c0 .6.1 1 .4 1.4.3.4.6.6 1 .6.5 0 1-.2 1.2-.6.2-.3.4-.8.4-1.5 0-.6-.2-1-.4-1.4-.3-.4-.7-.5-1.1-.5-.5 0-.8.1-1.1.5-.3.3-.4.9-.4 1.5zm8.3 2.6l-.1-.6a2 2 0 0 1-1.5.7c-.6 0-1-.1-1.3-.4-.4-.3-.5-.7-.5-1.2s.2-1 .6-1.2a3 3 0 0 1 1.8-.5h.8v-.4c0-.3 0-.6-.2-.8-.2-.2-.5-.3-.9-.3-.3 0-.6.1-.8.3l-.3.6h-1c0-.3.2-.5.4-.8l.7-.6 1-.2c.7 0 1.2.2 1.5.5.4.3.5.7.5 1.2v2.5l.2 1.1v.1h-1zm-1.5-.7c.3 0 .5 0 .8-.2.2-.2.4-.3.5-.6v-1h-.7c-1 0-1.6.3-1.6 1 0 .2 0 .4.3.6l.7.2zm3.4-2c0-.8.2-1.4.6-2 .4-.4.9-.7 1.5-.7s1.1.2 1.5.7V7.5h.9V15H93v-.6c-.4.5-1 .7-1.6.7-.6 0-1.1-.3-1.5-.8-.4-.5-.6-1.1-.6-2zm1 .1c0 .6 0 1 .3 1.4.3.4.6.5 1 .5.6 0 1-.2 1.3-.7V11c-.3-.5-.7-.7-1.2-.7s-.8.2-1 .5c-.3.3-.5.8-.5 1.5zm7.1 0c0-.6.1-1 .3-1.5l.9-1 1.2-.3c.8 0 1.3.3 1.8.8.4.5.7 1.1.7 2 0 .5-.1 1-.3 1.4a2.2 2.2 0 0 1-2.1 1.3c-.8 0-1.3-.3-1.8-.7-.4-.5-.7-1.2-.7-2zm1 0c0 .6 0 1 .4 1.4.2.4.6.6 1 .6.5 0 .9-.2 1.1-.6.3-.3.5-.8.5-1.5 0-.6-.2-1-.5-1.4-.2-.4-.6-.5-1-.5-.5 0-.9.1-1.1.5-.3.3-.4.9-.4 1.5zm5.8-2.7v.7a2 2 0 0 1 1.7-.8c1 0 1.6.6 1.6 2V15h-.9v-3.5c0-.4 0-.7-.2-.8-.2-.2-.5-.3-.8-.3-.3 0-.6 0-.8.2l-.5.6V15h-1V9.7h1zm8.4-1.3v1.3h1v.7h-1v3.3l.1.5.5.1h.4v.7l-.7.1c-.4 0-.7-.1-.9-.4-.2-.2-.3-.6-.3-1v-3.3h-1v-.7h1V8.4h1zm3 2a2 2 0 0 1 1.5-.8c1.1 0 1.7.6 1.7 2V15h-.9v-3.5c0-.4 0-.7-.3-.8-.1-.2-.4-.3-.7-.3-.3 0-.6 0-.8.2l-.5.6V15h-1V7.5h1v2.9zm6.8 4.7c-.8 0-1.3-.2-1.8-.7-.4-.5-.7-1.1-.7-1.9v-.2c0-.5.1-1 .3-1.4.2-.4.5-.7.9-1 .3-.2.7-.3 1.1-.3a2 2 0 0 1 1.6.7c.4.5.6 1.1.6 2v.3h-3.6c0 .5.2 1 .5 1.3a1.6 1.6 0 0 0 2 .3l.5-.6.6.5c-.5.7-1.2 1-2 1zm-.2-4.7c-.3 0-.6 0-.9.4a2 2 0 0 0-.4 1h2.6c0-.5-.1-.8-.4-1-.2-.3-.5-.4-.9-.4zM60 34.1h-5.9L53 37.6h-2.7l5.7-15.1h2.4L64 37.6h-2.8L60 34.1zM54.9 32h4.4L57 25.7 54.9 32zm19.9.1c0 1.8-.4 3.1-1.2 4.2-.8 1-1.8 1.5-3.2 1.5-1.2 0-2.2-.4-3-1.2V42H65V26.4h2.3v1.1c.8-.9 1.8-1.3 3.1-1.3 1.4 0 2.5.5 3.2 1.5.8 1 1.2 2.5 1.2 4.3v.1zm-2.5-.2c0-1.1-.2-2-.7-2.7-.4-.6-1-1-1.9-1-1 0-1.8.5-2.2 1.3v5c.4.9 1.2 1.3 2.2 1.3.8 0 1.5-.3 1.9-1 .5-.6.7-1.6.7-2.9zm14.5.2c0 1.8-.4 3.1-1.2 4.2-.8 1-1.8 1.5-3.2 1.5-1.2 0-2.2-.4-3-1.2V42H77V26.4h2.4v1.1c.8-.9 1.8-1.3 3.1-1.3 1.4 0 2.4.5 3.2 1.5.8 1 1.2 2.5 1.2 4.3v.1zm-2.5-.2c0-1.1-.2-2-.7-2.7-.4-.6-1-1-2-1s-1.7.5-2.1 1.3v5c.4.9 1.2 1.3 2.2 1.3.8 0 1.4-.3 1.9-1 .4-.6.7-1.6.7-2.9zm18 1.8c0-.6-.2-1.1-.6-1.5-.5-.4-1.3-.7-2.6-1.1l-2.9-1.2c-1.3-.9-2-2-2-3.4 0-1.2.5-2.2 1.5-3a6 6 0 0 1 3.8-1.2c1 0 2 .2 2.8.6.9.4 1.5 1 2 1.6.5.8.7 1.5.7 2.4h-2.6c0-.8-.3-1.4-.8-1.8-.5-.5-1.2-.7-2-.7-1 0-1.6.2-2 .5-.6.4-.8 1-.8 1.6 0 .5.3 1 .8 1.4a9 9 0 0 0 2.5 1c1.2.4 2.1.8 2.8 1.2.8.5 1.3 1 1.6 1.6.3.6.5 1.2.5 2 0 1.3-.5 2.3-1.4 3-1 .8-2.3 1.1-4 1.1-1 0-2-.2-3-.6-1-.4-1.6-1-2.1-1.7s-.8-1.5-.8-2.4h2.6c0 .8.3 1.5.9 2 .6.4 1.4.7 2.4.7s1.6-.2 2-.6c.5-.4.8-.9.8-1.5zm8-10v2.7h2v1.9h-2v6.2c0 .5 0 .8.2 1 .2.2.5.2.9.2h.9v1.9c-.6.2-1.2.2-1.7.2-2 0-2.9-1-2.9-3.2v-6.3H106v-2h1.8v-2.6h2.5zm3 8.2c0-1.1.3-2 .7-3a5.1 5.1 0 0 1 4.6-2.8c1.5 0 2.7.6 3.7 1.5 1 1 1.4 2.3 1.5 4v.5c0 1.1-.2 2.1-.6 3-.4.9-1 1.5-1.9 2-.7.5-1.7.7-2.7.7-1.6 0-2.9-.5-3.8-1.5-1-1.1-1.4-2.5-1.4-4.3V32zm2.6.2c0 1.2.2 2 .7 2.7.5.7 1.2 1 2 1 .9 0 1.5-.3 2-1a5 5 0 0 0 .7-2.9c0-1.1-.2-2-.7-2.7-.5-.7-1.2-1-2-1s-1.5.3-2 1c-.5.6-.7 1.6-.7 3zm16-3.4h-1c-1.2 0-2 .4-2.4 1.2v7.7h-2.6V26.4h2.5v1.2c.6-1 1.5-1.4 2.6-1.4l.8.1v2.4zm6.3 9.1c-1.6 0-3-.5-4-1.5s-1.4-2.3-1.4-4V32c0-1.1.2-2.1.6-3a4.8 4.8 0 0 1 4.4-2.8c1.6 0 2.8.5 3.6 1.4.9 1 1.3 2.4 1.3 4.2v1h-7.4c.1 1 .4 1.7 1 2.2.5.5 1.2.8 2 .8 1.2 0 2.1-.4 2.8-1.4l1.4 1.3c-.4.7-1 1.2-1.8 1.6-.8.3-1.6.5-2.5.5zm-.3-9.6c-.7 0-1.3.2-1.7.7-.4.5-.7 1.2-.8 2h4.8v-.1a3 3 0 0 0-.7-2c-.4-.4-1-.6-1.6-.6z"/><path fill="#fff" fill-rule="evenodd" d="M31 8a7 7 0 0 0-4.5 2.4c-1 1.2-1.9 3-1.7 4.8 1.8.1 3.5-1 4.6-2.2 1-1.3 1.8-3.1 1.6-5zm-.4 30.8c2 0 3.4-1.9 4.7-3.8 1.4-2 2-4 2.1-4.3-.2-.1-4-1.7-4.1-6.3 0-3.9 3.2-5.7 3.3-5.8a7.2 7.2 0 0 0-5.6-3c-1.5-.2-3 .3-4 .8-.8.3-1.5.5-2 .5s-1.1-.2-1.8-.5c-1-.4-2-.8-3.2-.8-2.6 0-5 1.5-6.4 3.9C11 24.2 13 31 15.6 35c1.3 1.8 2.8 4 4.8 3.9 2-.1 2.7-1.3 5-1.3 1.3 0 2 .3 2.8.6.7.3 1.4.6 2.4.6z" clip-rule="evenodd"/></svg>