<svg xmlns="http://www.w3.org/2000/svg" fill="none" viewBox="0 0 157 47"><path fill="#000" fill-rule="evenodd" d="M1 7.3C1 3.3 4.1 0 8.2 0h141.4c4 0 7.3 3.3 7.3 7.3v32.4c0 4-3.3 7.3-7.3 7.3H8.3c-4 0-7.4-3.3-7.4-7.3V7.3z" clip-rule="evenodd"/><path fill="#fff" d="M52.4 16V8.2h2.2c.6 0 1.2.1 1.8.4.5.3.9.8 1.2 1.3.3.6.4 1.2.4 2v.4c0 .8-.1 1.4-.4 2a3 3 0 0 1-1.2 1.2c-.6.3-1.2.5-1.9.5h-2.1zm1-7v6.2h1c.9 0 1.5-.3 2-.8a3 3 0 0 0 .6-2.1v-.5a3 3 0 0 0-.6-2c-.5-.5-1-.8-1.8-.8h-1.2zm5.8 4c0-.5 0-1 .3-1.5.2-.5.5-.8 1-1 .3-.3.8-.4 1.3-.4.8 0 1.4.3 2 .8.4.5.6 1.3.6 2.2 0 .6 0 1.1-.3 1.6a2.4 2.4 0 0 1-2.3 1.4c-.8 0-1.4-.3-2-.8-.4-.6-.6-1.3-.6-2.2zm1 .2c0 .6.1 1.1.4 1.5.3.4.7.6 1.2.6s1-.2 1.2-.6c.3-.4.5-1 .5-1.7 0-.6-.2-1.1-.5-1.5-.3-.4-.7-.6-1.2-.6s-.9.2-1.2.6c-.3.4-.4 1-.4 1.7zm10.6 1.4l1.2-4.4h1L71.3 16h-.8L69 11.6 67.7 16h-.8l-1.7-5.8h1l1.1 4.3 1.4-4.3h.8l1.3 4.4zm4.1-4.4v.7c.5-.5 1-.8 1.8-.8 1.2 0 1.8.7 1.8 2V16h-1v-3.8c0-.5 0-.8-.2-1-.2-.2-.5-.3-1-.3l-.8.3-.5.7V16h-1v-5.8h1zm6.2 5.8h-1V7.7h1V16zm1.4-3c0-.5 0-1 .3-1.5.2-.5.5-.8 1-1 .3-.3.8-.4 1.3-.4.8 0 1.4.3 2 .8.4.5.6 1.3.6 2.2 0 .6 0 1.1-.3 1.6a2.4 2.4 0 0 1-2.3 1.4c-.8 0-1.4-.3-2-.8-.4-.6-.6-1.3-.6-2.2zm1 .2c0 .6.1 1.1.4 1.5.3.4.7.6 1.2.6s1-.2 1.2-.6c.3-.4.4-1 .4-1.7 0-.6-.1-1.1-.4-1.5-.3-.4-.7-.6-1.2-.6s-.9.2-1.2.6c-.3.4-.4 1-.4 1.7zm9 2.8a2 2 0 0 1 0-.6c-.5.5-1 .7-1.7.7a2 2 0 0 1-1.4-.5c-.4-.3-.6-.7-.6-1.2 0-.6.3-1 .7-1.4.5-.4 1.1-.5 2-.5h1V12c0-.3-.2-.6-.4-.8-.2-.2-.5-.3-1-.3-.3 0-.6 0-.8.2-.2.2-.4.4-.4.7h-1c0-.3.1-.6.3-.8l.9-.7 1.2-.2c.6 0 1.1.1 1.5.5.4.3.6.8.6 1.4v2.6c0 .6 0 1 .2 1.3v.1h-1zm-1.6-.8c.3 0 .6 0 1-.2l.5-.6v-1.2h-.8c-1.2 0-1.8.3-1.8 1 0 .4.1.6.3.8.2.2.5.2.8.2zm3.8-2.2c0-.8.2-1.6.7-2.1a2 2 0 0 1 1.6-.8 2 2 0 0 1 1.6.7v-3h1V16h-.9v-.6a2 2 0 0 1-1.7.7 2 2 0 0 1-1.6-.8c-.5-.6-.7-1.3-.7-2.2zm1 .2c0 .6.2 1.1.4 1.5.3.4.7.6 1.2.6.6 0 1-.3 1.3-.9v-2.7c-.3-.5-.7-.8-1.3-.8-.5 0-.9.2-1.2.6-.2.4-.4 1-.4 1.7zm8-.2c0-.5 0-1 .3-1.5.2-.5.5-.8 1-1 .3-.3.8-.4 1.3-.4.8 0 1.4.3 2 .8.4.5.6 1.3.6 2.2 0 .6 0 1.1-.3 1.6a2.4 2.4 0 0 1-2.3 1.4c-.8 0-1.4-.3-2-.8-.4-.6-.6-1.3-.6-2.2zm1 .2c0 .6.1 1.1.4 1.5.3.4.7.6 1.2.6s1-.2 1.2-.6c.3-.4.4-1 .4-1.7 0-.6-.1-1.1-.4-1.5-.3-.4-.7-.6-1.2-.6s-.9.2-1.2.6c-.3.4-.4 1-.4 1.7zm6.4-3v.7c.5-.5 1-.8 1.8-.8 1.2 0 1.8.7 1.9 2V16h-1v-3.8c0-.5-.1-.8-.3-1-.2-.2-.5-.3-.9-.3-.3 0-.6.1-.8.3-.3.2-.5.4-.6.7V16h-1v-5.8h1zM120.7 32.3c0 1.4-.3 2.6-1 3.4a3 3 0 0 1-2.5 1.3c-1.3 0-2.3-.4-3-1.3v4.7h-1V27.5h1v1.3c.7-1 1.7-1.4 3-1.4a3 3 0 0 1 2.6 1.2c.6.9 1 2 1 3.5v.2zm-1-.2c0-1.2-.2-2.1-.7-2.8-.5-.7-1.2-1-2-1-.7 0-1.2.1-1.7.4-.4.3-.8.8-1 1.3v4.5c.2.5.6 1 1 1.2.5.3 1 .4 1.7.4.8 0 1.5-.3 2-1s.7-1.7.7-3zm4.5 4.7h-1V23.6h1v13.2zm8.6 0l-.2-1.3c-.3.5-.8.9-1.3 1.1-.6.3-1.2.4-1.8.4-.9 0-1.6-.2-2.2-.7-.5-.5-.8-1.2-.8-2s.4-1.6 1.1-2c.8-.6 1.8-.9 3.2-.9h1.8v-1a2 2 0 0 0-.6-1.6c-.4-.4-1-.6-1.8-.6-.7 0-1.3.2-1.7.6-.5.3-.8.8-.8 1.3h-1c0-.8.4-1.4 1-2a4 4 0 0 1 2.6-.7c1 0 1.8.2 2.4.7.6.6 1 1.3 1 2.2v4.4c0 .9 0 1.6.2 2v.1h-1zm-3.2-.7c.7 0 1.3-.2 1.9-.5a3 3 0 0 0 1.1-1.3v-2h-1.8c-1 0-1.8.1-2.4.5-.6.3-.9.8-.9 1.5 0 .5.2 1 .6 1.3.4.3.9.5 1.5.5zm9.6-.8l2.7-7.8h1.1l-4 11-.1.4c-.5 1.1-1.3 1.7-2.4 1.7l-.8-.1v-.9h.5c.5 0 1 0 1.3-.3l.8-1.3.4-1.2-3.5-9.3h1.1l3 7.8z"/><path fill="#00D6FF" d="M12.7 36.2V10.8c0-.9.5-1.6 1.2-2l14.7 14.7-14.7 14.7a2.2 2.2 0 0 1-1.2-2z"/><path fill="#F93647" d="M33.2 28.2l-16 9.2 12.6-12.6 3.4 3.4z"/><path fill="#FFCE00" d="M38.2 21.7a2.2 2.2 0 0 1 0 3.6l-3.4 2-3.7-3.8 3.7-3.7 3.4 2z"/><path fill="#00F076" d="M17.2 9.6l16 9.2-3.4 3.4L17.2 9.6z"/><path fill="#fff" d="M108.8 35.5l-1 .9-.7.3c-.6.3-1.3.3-1.8.3-.7 0-1.7 0-2.7-.7a5 5 0 0 1-2-4.2c0-3.1 2.6-4.6 4.6-4.6.6 0 1.4.3 2 .6 1 .6 1.2 1.5 1.4 2l-4.7 1.9h-1.5c.4 2.6 2.2 4 4 4 1 .1 1.7-.2 2.4-.5.1 0 0 0 0 0zm-2.8-5c.4-.1.6-.2.6-.5 0-.8-.9-1.7-2-1.7-.8 0-2.3.7-2.3 2.8v1l3.7-1.6zM99 35.4c0 .7.2.9.8 1h1l-.7.5h-3.6c.5-.5.6-.6.6-1V23.7h-1.6L97 23h2.8c-.6.3-.7.6-.8 1.2v11.2z"/><path fill="#fff" d="M93.7 28.6C94 29 95 30 95 31.3c0 1.4-.8 2.2-1.7 2.7-.2.3-.5.6-.5 1 0 .5.3.7.5 1l.7.5c.9.8 1.7 1.4 1.7 2.7 0 2-1.8 3.8-5.2 3.8-3 0-4.2-1.3-4.2-2.9 0-.6.3-1.7 1.5-2.4 1.2-.8 2.9-.9 3.8-.9-.4-.3-.6-.8-.6-1.3l.2-.8h-.6c-2.1 0-3.3-1.5-3.3-3a4 4 0 0 1 1.2-2.7 5.6 5.6 0 0 1 3.5-1.1h4.1l-1.2.6h-1.3v.1zm-1.4 8.8H92c-.2 0-1.2 0-2.1.3-.5.1-1.7.7-1.7 2 0 1.4 1.4 2.4 3.5 2.4 1.8 0 2.8-.9 2.8-2 0-1-.6-1.6-2-2.7zm.6-3.8c.4-.4.4-1.1.4-1.4 0-1.5-.9-3.7-2.5-3.7-.6 0-1.1.2-1.5.7-.3.4-.4 1-.4 1.4 0 1.4.8 3.6 2.4 3.6.7 0 1.3-.3 1.6-.6zM81.4 37.1c-3.1 0-4.9-2.4-4.9-4.6 0-2.5 2.1-4.7 5.1-4.7 2.9 0 4.8 2.3 4.8 4.6 0 2.2-1.7 4.7-5 4.7zm2.5-1.6c.5-.7.6-1.5.6-2.2 0-1.8-.9-5.1-3.3-5.1-.7 0-1.4.2-1.8.7-.8.6-.9 1.5-.9 2.4 0 2 1 5.2 3.3 5.2 1 0 1.7-.4 2.1-1zM70.9 37.1c-3.1 0-4.9-2.4-4.9-4.6 0-2.5 2.1-4.7 5.1-4.7 2.9 0 4.8 2.3 4.8 4.6 0 2.2-1.8 4.7-5 4.7zm2.5-1.6c.5-.7.6-1.5.6-2.2 0-1.8-.9-5.1-3.3-5.1-.7 0-1.4.2-1.8.7-.8.6-.9 1.5-.9 2.4 0 2 1 5.2 3.3 5.2.8 0 1.6-.4 2.1-1zM64.8 36.5l-2.6.5c-1.1.3-2 .4-3.1.4-5.1 0-7.1-3.8-7.1-6.8 0-3.6 2.8-7 7.5-7 1 0 2 .2 2.9.4 1.4.4 2 .9 2.4 1.1l-1.5 1.4-.7.1.4-.7c-.6-.7-1.7-1.8-4-1.8-2.8 0-5 2.2-5 5.5 0 3.6 2.5 6.8 6.5 6.8 1.2 0 1.8-.3 2.3-.5v-2.7h-2.7l1.4-.7h4l-.5.4-.2.4V36.5z"/></svg>