<svg xmlns="http://www.w3.org/2000/svg" fill="none" viewBox="0 0 99 32"><g clip-path="url(#clip0)"><path fill="#fff" fill-rule="evenodd" d="M.5 15.5a9 9 0 1 1 18.1 0 9 9 0 0 1-18.1 0z" clip-rule="evenodd"/><path fill="#00ADEE" fill-rule="evenodd" d="M13 23.9l-3.4-2.1v-3.2l2.8-2 3.3.7.7 4.1-3.5 2.5z" clip-rule="evenodd"/><path fill="#00ADEE" fill-rule="evenodd" d="M18.5 14.4l-2.8 3-3.3-.8-1-3.4 2-3.1 4 .8 1.1 3.5zM6.5 24l3-2.2v-3.2l-2.8-2-3.3.7-.5 4.3L6.5 24z" clip-rule="evenodd"/><path fill="#00ADEE" fill-rule="evenodd" d="M.6 14.4l2.8 3 3.3-.8 1-3.4-2-3.1-4 .8-1.1 3.5zM7.8 6.6l-2 3.5 2 3.1h3.5l2-3.1-2-3.5H7.8z" clip-rule="evenodd"/><path fill="#fff" d="M1.3 10.7a9.6 9.6 0 0 0 5 13.8 9.5 9.5 0 0 0 10.5-2.8 9.5 9.5 0 0 0 2.2-7.3c0-.7-.2-1.3-.4-1.9l5.2-5a.5.5 0 0 0-.7-.8l-4.8 4.8a9.5 9.5 0 0 0-6-5.2L15.7 3a.5.5 0 0 0-.7-.7L11.2 6a9.6 9.6 0 0 0-10 4.7zm4.2 0l1.8 2.6-1 2.9-2.2.5h-.5L1 14.3c.1-1 .5-2 1-3l3.4-.6zm6.3 2.6l1.8-2.7 3.5.7c.4 1 .8 1.9 1 3l-2.6 2.5-2.7-.6-.6-2-.4-.9zm4.9 7l-.5-2.8 2-2c-.1 1.8-.6 3.4-1.5 4.7zM11 13.6l.8 2.7L9.6 18l-2.3-1.6.9-2.7H11zM1 15.5l1.9 2-.3 2.9c-1-1.4-1.6-3-1.6-4.9zm2.4 6l.4-3.8 1.1-.2 1.7-.4 2.5 1.8v2.6l-2.7 2a8.6 8.6 0 0 1-3-2zm4.2 2.3l2-1.4 2.2 1.3a8.5 8.5 0 0 1-4.2 0zm5.4-.5l-3-1.8v-2.6l1.8-1.3.7-.5 2.8.6.5 3.6c-.8.8-1.7 1.5-2.8 2zm3.3-13.1l-2.6-.5-1.4-2.4c1.6.6 3 1.6 4 2.9zM11 7l1.8 3-1.8 2.8H8L6.4 10 8.1 7A8.6 8.6 0 0 1 11 7zm-4.2.3L5.4 9.7l-2.6.5c1-1.3 2.4-2.3 4-2.9z"/><path fill="#fff" d="M18.3 7.4L24.9.8a.5.5 0 1 0-.7-.7l-6.6 6.6a.5.5 0 0 0 .7.7zM16.9 1.5a.5.5 0 0 0 .5-.5.5.5 0 0 0-.5-.5.5.5 0 0 0 0 1z"/></g><path fill="#fff" d="M35 25.4c-.8 0-1.5-.1-2.1-.3a6.1 6.1 0 0 1-3.3-2.5c-.5-.6-.8-1.3-1-2l3-1.3c.2.9.6 1.6 1.2 2.2a3 3 0 0 0 2.2.8l1-.1.8-.4.6-.6c.2-.3.2-.6.2-1l-.1-.8a2 2 0 0 0-.6-.7l-1-.7-1.6-.6-1-.4-1.5-.6-1.3-1-1-1.4c-.2-.5-.3-1-.3-1.7a4.6 4.6 0 0 1 1.5-3.5 6.5 6.5 0 0 1 4-1.4 6.2 6.2 0 0 1 4 1.3c.4.3.7.7 1 1.2l.6 1.2-2.9 1.2a3 3 0 0 0-.9-1.3c-.4-.4-1-.6-1.7-.6a3 3 0 0 0-1.7.5c-.5.3-.7.8-.7 1.3s.2 1 .6 1.3c.5.4 1.2.7 2.2 1l1 .4 2 .8 1.4 1.1 1 1.5c.2.6.3 1.2.3 2a4.7 4.7 0 0 1-2 3.8 6 6 0 0 1-1.9 1c-.7.2-1.3.3-2 .3zm7.6-12.2h3v1.5h.1c.3-.5.8-1 1.4-1.3.6-.4 1.3-.5 2.2-.5a5 5 0 0 1 2.2.4c.6.3 1.2.8 1.8 1.3a6 6 0 0 1 1.2 2 6.8 6.8 0 0 1 0 5 5.8 5.8 0 0 1-3 3.3c-.7.3-1.4.5-2.2.5-.9 0-1.6-.2-2.2-.5-.6-.4-1.1-.8-1.4-1.3h-.2l.2 1.7v4.9h-3.1v-17zm6 9.3c.5 0 .9-.1 1.2-.3a3 3 0 0 0 1.7-1.7 3.5 3.5 0 0 0-.7-3.8 3 3 0 0 0-3.3-.7c-.4.1-.7.4-1 .6l-.7 1.1a3.6 3.6 0 0 0 0 2.8 3.3 3.3 0 0 0 1.7 1.8l1.2.2zm13.5-9.6a6.3 6.3 0 0 1 4.4 1.7 6.5 6.5 0 0 1 1.8 4.5 6.5 6.5 0 0 1-1.8 4.5 6 6 0 0 1-4.4 1.8 6.4 6.4 0 0 1-4.5-1.8 6.3 6.3 0 0 1-1.8-4.5c0-.9.2-1.7.5-2.5a6 6 0 0 1 5.8-3.7zm0 9.6c.4 0 .7 0 1.1-.2a3 3 0 0 0 1.7-1.7c.2-.5.2-1 .2-1.5a3.6 3.6 0 0 0-.9-2.5c-.3-.2-.6-.5-1-.6a2.9 2.9 0 0 0-2.3 0c-.4.1-.7.4-1 .6a3.3 3.3 0 0 0-1 2.5c0 .5.1 1 .3 1.4a3.3 3.3 0 0 0 1.7 1.8l1.2.2zm10.5-7.6h.1c.4-.6.8-1 1.4-1.4a4 4 0 0 1 2.1-.6h.6l.5.1v3.1a3.5 3.5 0 0 0-1.4-.3 3 3 0 0 0-2.3 1c-.6.6-.9 1.4-.9 2.4V25h-3.1V13.2h3V15zm8.2 1h-2v-2.7h2V9.6h3.1v3.6h3V16h-3v4.6l.1.8c0 .2.2.4.3.5.3.3.6.4 1 .4h.6l.5-.3.9 2.8-1.2.3-1.4.2c-.6 0-1.1-.1-1.6-.3-.5-.2-.9-.4-1.2-.7-.7-.8-1.1-1.8-1.1-3.1v-5.2zm12.7 9.5a6.1 6.1 0 0 1-3.6-1 5.4 5.4 0 0 1-1.8-2.4l2.8-1.2c.3.6.6 1 1.1 1.4.5.3 1 .4 1.5.4.6 0 1 0 1.4-.3.3-.2.5-.4.5-.7 0-.4-.1-.6-.4-.8a4 4 0 0 0-1.5-.6L92 20a6 6 0 0 1-1.2-.4l-1-.7c-.4-.2-.6-.6-.8-1-.2-.3-.3-.8-.3-1.3 0-.6 0-1 .3-1.5s.6-.9 1-1.2l1.6-.7c.6-.2 1.2-.2 1.9-.2 1 0 2 .2 3 .6a4 4 0 0 1 2 2.1l-2.8 1.1a2 2 0 0 0-1-1 3 3 0 0 0-1.3-.3l-1.2.3c-.3.2-.5.4-.5.7 0 .3.2.5.4.6l1.2.5 1.8.4a5 5 0 0 1 2.7 1.4c.6.6.8 1.4.8 2.2 0 .5 0 1-.3 1.5a4 4 0 0 1-1 1.2 5 5 0 0 1-1.6.9c-.6.2-1.3.3-2 .3z"/><defs><clipPath id="clip0"><path fill="#fff" d="M0 0h25v25H0z" transform="rotate(-180 12.5 12.5)"/></clipPath></defs></svg>